{"title":"Frozen 2013 DVDSCR AC3 XViD - DiSNEY","uid":9451576,"size":2240928490,"categoryP":"video","categoryS":"movies","magnet":"?xt=urn:btih:c00bceccb38126087630d806625e4e87563cf171&amp;dn=Frozen+2013+DVDSCR+AC3+XViD+-+DiSNEY&amp;tr=udp%3A%2F%2Ftracker.openbittorrent.com%3A80&amp;tr=udp%3A%2F%2Fopen.demonii.com%3A1337&amp;tr=udp%3A%2F%2Ftracker.coppersurfer.tk%3A6969&amp;tr=udp%3A%2F%2Fexodus.desync.com%3A6969","seeders":2,"leechers":0,"uploader":"NewSky005","files":47,"time":1389191556,"description":"Frozen 2013 DVDSCR AC3 XViD - DiSNEY\n\n\nSORS : VOBS THXs M8TY\n\nVideo\nID                                       : 0\nFormat                                   : MPEG-4 Visual\nFormat profile                           : Advanced Simple@L5\nFormat settings, BVOP                    : 2\nFormat settings, QPel                    : No\nFormat settings, GMC                     : No warppoints\nFormat settings, Matrix                  : Default (MPEG)\nMuxing mode                              : Packed bitstream\nCodec ID                                 : XVID\nCodec ID/Hint                            : XviD\nDuration                                 : 1h 40mn\nBit rate                                 : 2 457 Kbps\nWidth                                    : 720 pixels\nHeight                                   : 320 pixels\nDisplay aspect ratio                     : 2.25:1\nFrame rate                               : 29.970 fps\nColor space                              : YUV\nChroma subsampling                       : 4:2:0\nBit depth                                : 8 bits\nScan type                                : Progressive\nCompression mode                         : Lossy\nBits/(Pixel*Frame)                       : 0.356\nStream size                              : 1.73 GiB (84%)\nWriting library                          : XviD 64\n\nAudio\nID                                       : 1\nFormat                                   : AC-3\nFormat/Info                              : Audio Coding 3\nMode extension                           : CM (complete main)\nFormat settings, Endianness              : Big\nCodec ID                                 : 2000\nDuration                                 : 1h 40mn\nBit rate mode                            : Constant\nBit rate                                 : 448 Kbps\nChannel(s)                               : 6 channels\nChannel positions                        : Front: L C R, Side: L R, LFE\nSampling rate                            : 48.0 KHz\nBit depth                                : 16 bits\nCompression mode                         : Lossy\nStream size                              : 323 MiB (15%)\nAlignment                                : Aligned on interleaves\nInterleave, duration                     : 33 ms (1.00 video frame)\nInterleave, preload duration             : 512 ms\n\n\nNOTES :\n\nCropped,resized,HQsmoother,chroma/brightness/contrast/rgb levels slightly changed...some sharpness added.\nAudio untouched 5.1 track remuxed.\n\nDone the right way :) &lt;a href=&quot;\nhttp://i.imgur.com/zHQa1Su.png&quot; rel=&quot;nofollow&quot; target=&quot;_NEW&quot;&gt;\nhttp://i.imgur.com/zHQa1Su.png&lt;/a&gt; &lt;a href=&quot;\nhttp://i.imgur.com/vLVP2By.png&quot; rel=&quot;nofollow&quot; target=&quot;_NEW&quot;&gt;\nhttp://i.imgur.com/vLVP2By.png&lt;/a&gt; &lt;a href=&quot;\nhttp://i.imgur.com/n1IhAmR.png&quot; rel=&quot;nofollow&quot; target=&quot;_NEW&quot;&gt;\nhttp://i.imgur.com/n1IhAmR.png&lt;/a&gt; &lt;a href=&quot;\nhttp://i.imgur.com/Mt9iqyq.png&quot; rel=&quot;nofollow&quot; target=&quot;_NEW&quot;&gt;\nhttp://i.imgur.com/Mt9iqyq.png&lt;/a&gt; &lt;a href=&quot;\nhttp://i.imgur.com/K18LqFm.png&quot; rel=&quot;nofollow&quot; target=&quot;_NEW&quot;&gt;\nhttp://i.imgur.com/K18LqFm.png&lt;/a&gt;\nJust Xxtract the rar file and enjoy the movie","torrent":{"xt":"urn:btih:c00bceccb38126087630d806625e4e87563cf171","amp;dn":"Frozen+2013+DVDSCR+AC3+XViD+-+DiSNEY","amp;tr":["udp%3A%2F%2Ftracker.openbittorrent.com%3A80","udp%3A%2F%2Fopen.demonii.com%3A1337","udp%3A%2F%2Ftracker.coppersurfer.tk%3A6969","udp%3A%2F%2Fexodus.desync.com%3A6969"],"infoHash":"c00bceccb38126087630d806625e4e87563cf171","infoHashBuffer":{"type":"Buffer","data":[192,11,206,204,179,129,38,8,118,48,216,6,98,94,78,135,86,60,241,113]},"announce":[],"urlList":[]}}